<?xml version="1.0" encoding="UTF-8"?>
<svg xmlns="http://www.w3.org/2000/svg" xmlns:xlink="http://www.w3.org/1999/xlink" width="48px" height="48px" viewBox="0 0 48 48" version="1.1">
<g id="surface1">
<path style="fill:none;stroke-width:2;stroke-linecap:butt;stroke-linejoin:miter;stroke:rgb(50.588235%,56.470588%,65.882353%);stroke-opacity:1;stroke-miterlimit:4;" d="M 440.296875 39.82902 C 440.296875 31.4375 433.47526 24.642415 425.119792 24.642415 L 71.16276 24.642415 C 62.807292 24.642415 55.985677 31.4375 55.985677 39.82902 L 55.985677 294.931234 C 55.985677 303.322754 62.807292 310.117839 71.16276 310.117839 L 425.119792 310.117839 C 433.47526 310.117839 440.296875 303.322754 440.296875 294.931234 L 440.296875 39.82902 " transform="matrix(0.0967742,0,0,0.0954274,0,0)"/>
<path style="fill:none;stroke-width:2;stroke-linecap:butt;stroke-linejoin:miter;stroke:rgb(50.588235%,56.470588%,65.882353%);stroke-opacity:1;stroke-miterlimit:4;" d="M 298.697917 321.251953 C 298.859375 325.222575 300.554688 340.900391 293.733073 340.900391 C 263.338542 340.941325 232.94401 340.941325 202.589844 340.941325 C 199.158854 340.941325 197.423177 337.830322 197.423177 334.555583 C 197.423177 330.052816 197.463542 325.631917 197.503906 321.251953 C 197.503906 321.047282 197.423177 320.842611 197.302083 320.719808 C 197.140625 320.597005 196.979167 320.515137 196.777344 320.515137 L 152.981771 320.515137 C 152.658854 320.515137 152.376302 320.678874 152.255208 321.006348 C 149.268229 328.006104 146.927083 335.292399 145.191406 342.783366 C 143.778646 348.964437 148.703125 350.888346 153.748698 350.888346 C 216.233073 350.847412 278.757812 350.847412 341.242188 350.888346 C 343.583333 350.888346 351.050781 350.15153 351.21224 346.508382 C 351.292969 344.216064 351.010417 341.964681 350.404948 339.754232 C 348.628906 333.491292 346.610677 327.39209 344.35026 321.456624 C 344.148438 320.883545 343.623698 320.515137 343.018229 320.515137 L 299.464844 320.433268 C 299.263021 320.433268 299.061198 320.515137 298.940104 320.678874 C 298.778646 320.842611 298.697917 321.047282 298.697917 321.251953 " transform="matrix(0.0967742,0,0,0.0954274,0,0)"/>
<path style="fill:none;stroke-width:2;stroke-linecap:butt;stroke-linejoin:miter;stroke:rgb(50.588235%,56.470588%,65.882353%);stroke-opacity:1;stroke-miterlimit:4;" d="M 288.445312 321.211019 C 288.445312 320.760742 288.082031 320.433268 287.678385 320.433268 L 208.523438 320.433268 C 208.079427 320.433268 207.75651 320.760742 207.75651 321.211019 L 207.75651 329.684408 C 207.75651 330.134684 208.079427 330.462158 208.523438 330.462158 L 287.678385 330.462158 C 288.082031 330.462158 288.445312 330.134684 288.445312 329.684408 L 288.445312 321.211019 " transform="matrix(0.0967742,0,0,0.0954274,0,0)"/>
<path style="fill:none;stroke-width:2;stroke-linecap:butt;stroke-linejoin:miter;stroke:rgb(50.588235%,56.470588%,65.882353%);stroke-opacity:1;stroke-miterlimit:4;" d="M 420.316406 60.828288 C 420.316406 52.109294 413.252604 45.068604 404.574219 45.068604 L 91.546875 45.068604 C 82.86849 45.068604 75.804688 52.109294 75.804688 60.828288 L 75.804688 263.821208 C 75.804688 272.499268 82.86849 279.539958 91.546875 279.539958 L 404.574219 279.539958 C 413.252604 279.539958 420.316406 272.499268 420.316406 263.821208 L 420.316406 60.828288 " transform="matrix(0.0967742,0,0,0.0954274,0,0)"/>
<path style="fill:none;stroke-width:2;stroke-linecap:butt;stroke-linejoin:miter;stroke:rgb(50.588235%,56.470588%,65.882353%);stroke-opacity:1;stroke-miterlimit:4;" d="M 409.983073 60.45988 C 409.983073 57.512614 407.601562 55.138428 404.695312 55.138428 L 91.385417 55.138428 C 88.479167 55.138428 86.097656 57.512614 86.097656 60.45988 L 86.097656 264.189616 C 86.097656 267.136882 88.479167 269.511068 91.385417 269.511068 L 404.695312 269.511068 C 407.601562 269.511068 409.983073 267.136882 409.983073 264.189616 L 409.983073 60.45988 " transform="matrix(0.0967742,0,0,0.0954274,0,0)"/>
<path style="fill:none;stroke-width:2;stroke-linecap:butt;stroke-linejoin:miter;stroke:rgb(47.843137%,48.235294%,48.627451%);stroke-opacity:1;stroke-miterlimit:4;" d="M 175.141927 214.822917 C 183.457031 230.459798 200.53125 242.289795 218.49349 245.277995 C 218.695312 245.277995 218.856771 245.237061 218.977865 245.114258 C 219.139323 244.991455 219.179688 244.827718 219.220052 244.663981 L 219.300781 83.546794 C 219.300781 83.178385 219.139323 83.014648 218.776042 83.014648 L 168.239583 83.014648 C 167.876302 83.014648 167.553385 83.301188 167.553385 83.669596 C 167.432292 114.65682 167.472656 145.439372 167.674479 176.099121 C 167.755208 190.794515 169.00651 203.197591 175.141927 214.822917 " transform="matrix(0.0967742,0,0,0.0954274,0,0)"/>
<path style="fill:none;stroke-width:2;stroke-linecap:butt;stroke-linejoin:miter;stroke:rgb(47.843137%,48.235294%,48.627451%);stroke-opacity:1;stroke-miterlimit:4;" d="M 275.690104 193.209635 C 271.048177 203.115723 263.217448 208.519043 252.238281 209.501465 C 250.744792 209.624268 249.372396 209.828939 248.161458 210.03361 C 247.636719 210.156413 247.394531 210.442952 247.394531 210.975098 L 247.55599 247.979655 C 247.55599 248.307129 247.717448 248.5118 248.040365 248.5118 C 277.223958 250.312907 311.574219 240.12028 323.925781 211.261637 C 328.204427 201.232747 329.132812 189.320882 329.213542 177.982096 C 329.415365 146.585531 329.536458 115.188965 329.496094 83.751465 C 329.496094 83.342122 329.173177 83.014648 328.769531 83.014648 L 278.233073 83.014648 C 277.829427 83.014648 277.466146 83.342122 277.466146 83.751465 C 277.58724 117.440348 277.425781 150.924561 276.941406 184.245036 C 276.860677 188.543132 276.457031 191.531331 275.690104 193.209635 " transform="matrix(0.0967742,0,0,0.0954274,0,0)"/>
<path style="fill:none;stroke-width:2;stroke-linecap:butt;stroke-linejoin:miter;stroke:rgb(50.588235%,56.470588%,65.882353%);stroke-opacity:1;stroke-miterlimit:4;" d="M 59.981771 401.196533 C 52.83724 418.143311 45.692708 435.090088 38.588542 452.036865 C 36.247396 457.644857 31.403646 469.065511 39.678385 472.381185 C 41.13151 472.995199 43.714844 473.281738 47.428385 473.240804 C 181.842448 472.954264 316.296875 472.995199 450.710938 473.281738 C 463.667969 473.322673 462.295573 464.194336 458.66276 455.270671 C 451.074219 436.645589 443.324219 418.061442 435.49349 399.518229 C 430.891927 388.752523 427.945312 381.548096 415.997396 381.507161 C 360.455729 381.384359 249.049479 381.466227 81.738281 381.752767 C 66.561198 381.793701 65.027344 389.284668 59.981771 401.196533 " transform="matrix(0.0967742,0,0,0.0954274,0,0)"/>
<path style="fill:none;stroke-width:2;stroke-linecap:butt;stroke-linejoin:miter;stroke:rgb(50.588235%,56.470588%,65.882353%);stroke-opacity:1;stroke-miterlimit:4;" d="M 430.165365 463.007243 C 431.820312 463.007243 433.394531 462.188558 434.363281 460.837728 C 435.332031 459.486898 435.614583 457.76766 435.089844 456.171224 L 414.907552 395.220133 C 414.18099 393.132487 412.203125 391.699788 409.983073 391.699788 L 86.138021 391.699788 C 83.917969 391.699788 81.940104 393.132487 81.253906 395.220133 L 61.111979 456.171224 C 60.58724 457.76766 60.829427 459.486898 61.798177 460.837728 C 62.807292 462.188558 64.341146 463.007243 66.036458 463.007243 L 430.165365 463.007243 " transform="matrix(0.0967742,0,0,0.0954274,0,0)"/>
<path style="fill:none;stroke-width:2;stroke-linecap:butt;stroke-linejoin:miter;stroke:rgb(50.588235%,56.470588%,65.882353%);stroke-opacity:1;stroke-miterlimit:4;" d="M 83.554688 421.049642 C 83.514323 421.254313 83.554688 421.499919 83.675781 421.70459 C 83.796875 421.868327 84.039062 421.99113 84.28125 421.99113 L 105.553385 421.99113 C 105.997396 421.99113 106.320312 421.663656 106.320312 421.254313 L 106.320312 402.752035 C 106.320312 402.342692 105.997396 402.015218 105.59375 402.015218 L 90.214844 402.015218 C 89.891927 402.015218 89.609375 402.219889 89.528646 402.506429 L 83.554688 421.049642 " transform="matrix(0.0967742,0,0,0.0954274,0,0)"/>
<path style="fill:none;stroke-width:2;stroke-linecap:butt;stroke-linejoin:miter;stroke:rgb(50.588235%,56.470588%,65.882353%);stroke-opacity:1;stroke-miterlimit:4;" d="M 136.755208 402.506429 C 136.755208 402.219889 136.513021 402.015218 136.230469 402.015218 L 117.259115 402.015218 C 116.976562 402.015218 116.734375 402.219889 116.734375 402.506429 L 116.734375 421.499919 C 116.734375 421.786458 116.976562 421.99113 117.259115 421.99113 L 136.230469 421.99113 C 136.513021 421.99113 136.755208 421.786458 136.755208 421.499919 L 136.755208 402.506429 " transform="matrix(0.0967742,0,0,0.0954274,0,0)"/>
<path style="fill:none;stroke-width:2;stroke-linecap:butt;stroke-linejoin:miter;stroke:rgb(50.588235%,56.470588%,65.882353%);stroke-opacity:1;stroke-miterlimit:4;" d="M 166.988281 402.629232 C 166.988281 402.260824 166.665365 401.93335 166.302083 401.93335 L 147.653646 401.974284 C 147.25 401.974284 146.967448 402.301758 146.967448 402.670166 L 146.967448 421.336182 C 146.967448 421.70459 147.290365 421.99113 147.69401 421.99113 L 166.302083 421.99113 C 166.705729 421.99113 166.988281 421.663656 166.988281 421.295247 L 166.988281 402.629232 " transform="matrix(0.0967742,0,0,0.0954274,0,0)"/>
<path style="fill:none;stroke-width:2;stroke-linecap:butt;stroke-linejoin:miter;stroke:rgb(50.588235%,56.470588%,65.882353%);stroke-opacity:1;stroke-miterlimit:4;" d="M 197.463542 402.588298 C 197.463542 402.260824 197.18099 401.974284 196.858073 401.974284 L 177.886719 401.93335 C 177.523438 401.93335 177.28125 402.219889 177.28125 402.547363 L 177.240885 421.377116 C 177.240885 421.70459 177.483073 421.99113 177.846354 421.99113 L 196.817708 422.032064 C 197.140625 422.032064 197.423177 421.745524 197.423177 421.41805 L 197.463542 402.588298 " transform="matrix(0.0967742,0,0,0.0954274,0,0)"/>
<path style="fill:none;stroke-width:2;stroke-linecap:butt;stroke-linejoin:miter;stroke:rgb(50.588235%,56.470588%,65.882353%);stroke-opacity:1;stroke-miterlimit:4;" d="M 227.898438 402.629232 C 227.898438 402.301758 227.615885 401.974284 227.252604 401.974284 L 208.563802 401.93335 C 208.200521 401.93335 207.877604 402.219889 207.877604 402.588298 L 207.83724 421.336182 C 207.83724 421.70459 208.119792 421.99113 208.483073 421.99113 L 227.171875 422.072998 C 227.535156 422.072998 227.817708 421.745524 227.817708 421.41805 L 227.898438 402.629232 " transform="matrix(0.0967742,0,0,0.0954274,0,0)"/>
<path style="fill:none;stroke-width:2;stroke-linecap:butt;stroke-linejoin:miter;stroke:rgb(50.588235%,56.470588%,65.882353%);stroke-opacity:1;stroke-miterlimit:4;" d="M 258.050781 402.588298 C 258.050781 402.219889 257.768229 401.974284 257.404948 401.974284 L 238.635417 401.974284 C 238.272135 401.974284 237.989583 402.219889 237.989583 402.588298 L 237.989583 421.377116 C 237.989583 421.70459 238.272135 421.99113 238.635417 421.99113 L 257.404948 421.99113 C 257.768229 421.99113 258.050781 421.70459 258.050781 421.377116 L 258.050781 402.588298 " transform="matrix(0.0967742,0,0,0.0954274,0,0)"/>
<path style="fill:none;stroke-width:2;stroke-linecap:butt;stroke-linejoin:miter;stroke:rgb(50.588235%,56.470588%,65.882353%);stroke-opacity:1;stroke-miterlimit:4;" d="M 288.404948 402.588298 C 288.404948 402.219889 288.122396 401.974284 287.799479 401.974284 L 268.86849 402.015218 C 268.545573 402.015218 268.263021 402.260824 268.263021 402.588298 L 268.303385 421.41805 C 268.303385 421.745524 268.585938 422.032064 268.908854 422.032064 L 287.839844 421.99113 C 288.16276 421.99113 288.445312 421.745524 288.445312 421.377116 L 288.404948 402.588298 " transform="matrix(0.0967742,0,0,0.0954274,0,0)"/>
<path style="fill:none;stroke-width:2;stroke-linecap:butt;stroke-linejoin:miter;stroke:rgb(50.588235%,56.470588%,65.882353%);stroke-opacity:1;stroke-miterlimit:4;" d="M 318.960938 402.629232 C 318.960938 402.260824 318.678385 402.015218 318.355469 402.015218 L 299.303385 402.015218 C 298.980469 402.015218 298.697917 402.260824 298.697917 402.629232 L 298.697917 421.377116 C 298.697917 421.745524 298.980469 421.99113 299.303385 421.99113 L 318.355469 421.99113 C 318.678385 421.99113 318.960938 421.745524 318.960938 421.377116 L 318.960938 402.629232 " transform="matrix(0.0967742,0,0,0.0954274,0,0)"/>
<path style="fill:none;stroke-width:2;stroke-linecap:butt;stroke-linejoin:miter;stroke:rgb(50.588235%,56.470588%,65.882353%);stroke-opacity:1;stroke-miterlimit:4;" d="M 349.19401 402.670166 C 349.19401 402.260824 348.911458 401.974284 348.507812 401.974284 L 329.859375 402.015218 C 329.455729 402.015218 329.132812 402.301758 329.132812 402.7111 L 329.173177 421.295247 C 329.173177 421.70459 329.496094 422.032064 329.859375 422.032064 L 348.548177 421.99113 C 348.911458 421.99113 349.234375 421.663656 349.234375 421.254313 L 349.19401 402.670166 " transform="matrix(0.0967742,0,0,0.0954274,0,0)"/>
<path style="fill:none;stroke-width:2;stroke-linecap:butt;stroke-linejoin:miter;stroke:rgb(50.588235%,56.470588%,65.882353%);stroke-opacity:1;stroke-miterlimit:4;" d="M 379.467448 402.752035 C 379.467448 402.342692 379.144531 402.015218 378.740885 402.015218 L 360.092448 401.974284 C 359.688802 401.974284 359.365885 402.301758 359.365885 402.7111 L 359.325521 421.254313 C 359.325521 421.663656 359.648438 421.99113 360.052083 421.99113 L 378.740885 422.032064 C 379.144531 422.032064 379.467448 421.70459 379.467448 421.295247 L 379.467448 402.752035 " transform="matrix(0.0967742,0,0,0.0954274,0,0)"/>
<path style="fill:none;stroke-width:2;stroke-linecap:butt;stroke-linejoin:miter;stroke:rgb(50.588235%,56.470588%,65.882353%);stroke-opacity:1;stroke-miterlimit:4;" d="M 389.760417 421.336182 C 389.760417 421.70459 390.042969 421.99113 390.40625 421.99113 L 412.001302 421.99113 C 412.24349 421.99113 412.445312 421.909261 412.566406 421.745524 C 412.6875 421.540853 412.727865 421.336182 412.647135 421.13151 L 406.713542 402.465495 C 406.632812 402.178955 406.35026 402.015218 406.067708 402.015218 L 390.40625 401.974284 C 390.042969 401.974284 389.720052 402.301758 389.720052 402.670166 L 389.760417 421.336182 " transform="matrix(0.0967742,0,0,0.0954274,0,0)"/>
<path style="fill:none;stroke-width:2;stroke-linecap:butt;stroke-linejoin:miter;stroke:rgb(50.588235%,56.470588%,65.882353%);stroke-opacity:1;stroke-miterlimit:4;" d="M 80.164062 432.593099 C 79.841146 432.593099 79.558594 432.79777 79.477865 433.125244 L 73.342448 451.79126 C 73.261719 452.036865 73.302083 452.282471 73.423177 452.487142 C 73.584635 452.691813 73.826823 452.773682 74.06901 452.773682 L 105.553385 452.773682 C 105.957031 452.773682 106.320312 452.446208 106.320312 452.036865 L 106.320312 433.329915 C 106.320312 432.920573 105.997396 432.593099 105.59375 432.593099 L 80.164062 432.593099 " transform="matrix(0.0967742,0,0,0.0954274,0,0)"/>
<path style="fill:none;stroke-width:2;stroke-linecap:butt;stroke-linejoin:miter;stroke:rgb(50.588235%,56.470588%,65.882353%);stroke-opacity:1;stroke-miterlimit:4;" d="M 136.755208 433.166178 C 136.755208 432.838704 136.513021 432.593099 136.230469 432.593099 L 117.339844 432.593099 C 117.016927 432.593099 116.77474 432.838704 116.77474 433.125244 L 116.734375 452.200602 C 116.734375 452.487142 117.016927 452.732747 117.299479 452.732747 L 136.190104 452.773682 C 136.472656 452.773682 136.714844 452.528076 136.714844 452.200602 L 136.755208 433.166178 " transform="matrix(0.0967742,0,0,0.0954274,0,0)"/>
<path style="fill:none;stroke-width:2;stroke-linecap:butt;stroke-linejoin:miter;stroke:rgb(50.588235%,56.470588%,65.882353%);stroke-opacity:1;stroke-miterlimit:4;" d="M 318.960938 433.288981 C 318.960938 432.879639 318.638021 432.51123 318.234375 432.51123 L 147.734375 432.51123 C 147.330729 432.51123 147.007812 432.879639 147.007812 433.288981 L 147.007812 452.036865 C 147.007812 452.446208 147.330729 452.773682 147.734375 452.773682 L 318.234375 452.773682 C 318.638021 452.773682 318.960938 452.446208 318.960938 452.036865 L 318.960938 433.288981 " transform="matrix(0.0967742,0,0,0.0954274,0,0)"/>
<path style="fill:none;stroke-width:2;stroke-linecap:butt;stroke-linejoin:miter;stroke:rgb(50.588235%,56.470588%,65.882353%);stroke-opacity:1;stroke-miterlimit:4;" d="M 349.234375 433.329915 C 349.234375 432.879639 348.911458 432.51123 348.467448 432.51123 L 329.859375 432.51123 C 329.415365 432.51123 329.052083 432.879639 329.052083 433.329915 L 329.052083 452.077799 C 329.052083 452.487142 329.415365 452.85555 329.859375 452.85555 L 348.467448 452.85555 C 348.911458 452.85555 349.234375 452.487142 349.234375 452.077799 L 349.234375 433.329915 " transform="matrix(0.0967742,0,0,0.0954274,0,0)"/>
<path style="fill:none;stroke-width:2;stroke-linecap:butt;stroke-linejoin:miter;stroke:rgb(50.588235%,56.470588%,65.882353%);stroke-opacity:1;stroke-miterlimit:4;" d="M 379.467448 433.411784 C 379.467448 432.920573 379.063802 432.552165 378.579427 432.552165 L 360.253906 432.51123 C 359.769531 432.51123 359.365885 432.920573 359.365885 433.411784 L 359.325521 451.914063 C 359.325521 452.405273 359.729167 452.814616 360.213542 452.814616 L 378.539062 452.85555 C 379.063802 452.85555 379.427083 452.446208 379.427083 451.954997 L 379.467448 433.411784 " transform="matrix(0.0967742,0,0,0.0954274,0,0)"/>
<path style="fill:none;stroke-width:2;stroke-linecap:butt;stroke-linejoin:miter;stroke:rgb(50.588235%,56.470588%,65.882353%);stroke-opacity:1;stroke-miterlimit:4;" d="M 422.213542 452.732747 C 422.455729 452.732747 422.657552 452.609945 422.81901 452.405273 C 422.940104 452.241536 422.980469 451.995931 422.89974 451.750326 L 416.683594 433.08431 C 416.5625 432.79777 416.279948 432.593099 415.957031 432.593099 L 390.486979 432.593099 C 390.083333 432.593099 389.760417 432.920573 389.760417 433.329915 L 389.720052 452.077799 C 389.720052 452.487142 390.083333 452.814616 390.486979 452.814616 L 422.213542 452.732747 " transform="matrix(0.0967742,0,0,0.0954274,0,0)"/>
<path style=" stroke:none;fill-rule:nonzero;fill:rgb(5.098039%,16.078431%,34.117647%);fill-opacity:1;" d="M 13.667969 30.589844 C 13.648438 30.554688 13.609375 30.53125 13.570312 30.53125 C 11.621094 30.539062 9.660156 30.542969 7.695312 30.550781 C 7.007812 30.550781 6.183594 30.515625 5.609375 30.191406 C 4.464844 29.550781 4.429688 28.320312 4.429688 27.148438 C 4.4375 19.597656 4.445312 12.050781 4.453125 4.5 C 4.453125 3.804688 4.503906 3.308594 4.601562 3.007812 C 5.050781 1.601562 6.21875 1.402344 7.621094 1.402344 C 18.53125 1.40625 29.445312 1.40625 40.355469 1.402344 C 41.5625 1.402344 42.746094 1.496094 43.300781 2.726562 C 43.484375 3.132812 43.574219 3.585938 43.578125 4.078125 C 43.585938 11.855469 43.585938 19.632812 43.574219 27.410156 C 43.574219 27.832031 43.554688 28.191406 43.507812 28.480469 C 43.367188 29.449219 42.832031 30.09375 41.902344 30.414062 C 41.640625 30.503906 41.191406 30.550781 40.546875 30.550781 C 38.515625 30.554688 36.488281 30.558594 34.460938 30.554688 C 34.414062 30.554688 34.371094 30.578125 34.34375 30.617188 C 34.320312 30.65625 34.316406 30.703125 34.332031 30.746094 C 34.621094 31.40625 34.8125 32.097656 34.910156 32.824219 C 34.941406 33.050781 34.90625 33.296875 34.808594 33.5625 C 34.570312 34.203125 33.890625 34.429688 33.242188 34.429688 C 27.136719 34.445312 21.03125 34.441406 14.925781 34.425781 C 13.902344 34.421875 13.128906 34.105469 13.113281 32.96875 C 13.101562 32.195312 13.4375 31.4375 13.679688 30.710938 C 13.695312 30.667969 13.6875 30.625 13.667969 30.589844 Z M 42.609375 3.800781 C 42.609375 3 41.949219 2.351562 41.140625 2.351562 L 6.886719 2.351562 C 6.078125 2.351562 5.417969 3 5.417969 3.800781 L 5.417969 28.144531 C 5.417969 28.945312 6.078125 29.59375 6.886719 29.59375 L 41.140625 29.59375 C 41.949219 29.59375 42.609375 28.945312 42.609375 28.144531 Z M 28.90625 30.65625 C 28.921875 31.035156 29.085938 32.53125 28.425781 32.53125 C 25.484375 32.535156 22.542969 32.535156 19.605469 32.535156 C 19.273438 32.535156 19.105469 32.238281 19.105469 31.925781 C 19.105469 31.496094 19.109375 31.074219 19.113281 30.65625 C 19.113281 30.636719 19.105469 30.617188 19.09375 30.605469 C 19.078125 30.59375 19.0625 30.585938 19.042969 30.585938 L 14.804688 30.585938 C 14.773438 30.585938 14.746094 30.601562 14.734375 30.632812 C 14.445312 31.300781 14.21875 31.996094 14.050781 32.710938 C 13.914062 33.300781 14.390625 33.484375 14.878906 33.484375 C 20.925781 33.480469 26.976562 33.480469 33.023438 33.484375 C 33.25 33.484375 33.972656 33.414062 33.988281 33.066406 C 33.996094 32.847656 33.96875 32.632812 33.910156 32.421875 C 33.738281 31.824219 33.542969 31.242188 33.324219 30.675781 C 33.304688 30.621094 33.253906 30.585938 33.195312 30.585938 L 28.980469 30.578125 C 28.960938 30.578125 28.941406 30.585938 28.929688 30.601562 C 28.914062 30.617188 28.90625 30.636719 28.90625 30.65625 Z M 27.914062 30.652344 C 27.914062 30.609375 27.878906 30.578125 27.839844 30.578125 L 20.179688 30.578125 C 20.136719 30.578125 20.105469 30.609375 20.105469 30.652344 L 20.105469 31.460938 C 20.105469 31.503906 20.136719 31.535156 20.179688 31.535156 L 27.839844 31.535156 C 27.878906 31.535156 27.914062 31.503906 27.914062 31.460938 Z M 27.914062 30.652344 "/>
<path style=" stroke:none;fill-rule:nonzero;fill:rgb(95.686275%,96.470588%,97.254902%);fill-opacity:1;" d="M 42.609375 28.144531 C 42.609375 28.945312 41.949219 29.59375 41.140625 29.59375 L 6.886719 29.59375 C 6.078125 29.59375 5.417969 28.945312 5.417969 28.144531 L 5.417969 3.800781 C 5.417969 3 6.078125 2.351562 6.886719 2.351562 L 41.140625 2.351562 C 41.949219 2.351562 42.609375 3 42.609375 3.800781 Z M 40.675781 5.804688 C 40.675781 4.972656 39.992188 4.300781 39.152344 4.300781 L 8.859375 4.300781 C 8.019531 4.300781 7.335938 4.972656 7.335938 5.804688 L 7.335938 25.175781 C 7.335938 26.003906 8.019531 26.675781 8.859375 26.675781 L 39.152344 26.675781 C 39.992188 26.675781 40.675781 26.003906 40.675781 25.175781 Z M 40.675781 5.804688 "/>
<path style=" stroke:none;fill-rule:nonzero;fill:rgb(5.098039%,16.078431%,34.117647%);fill-opacity:1;" d="M 40.675781 25.175781 C 40.675781 26.003906 39.992188 26.675781 39.152344 26.675781 L 8.859375 26.675781 C 8.019531 26.675781 7.335938 26.003906 7.335938 25.175781 L 7.335938 5.804688 C 7.335938 4.972656 8.019531 4.300781 8.859375 4.300781 L 39.152344 4.300781 C 39.992188 4.300781 40.675781 4.972656 40.675781 5.804688 Z M 39.675781 5.769531 C 39.675781 5.488281 39.445312 5.261719 39.164062 5.261719 L 8.84375 5.261719 C 8.5625 5.261719 8.332031 5.488281 8.332031 5.769531 L 8.332031 25.210938 C 8.332031 25.492188 8.5625 25.71875 8.84375 25.71875 L 39.164062 25.71875 C 39.445312 25.71875 39.675781 25.492188 39.675781 25.210938 Z M 39.675781 5.769531 "/>
<path style=" stroke:none;fill-rule:nonzero;fill:rgb(95.686275%,96.470588%,97.254902%);fill-opacity:1;" d="M 39.675781 25.210938 C 39.675781 25.492188 39.445312 25.71875 39.164062 25.71875 L 8.84375 25.71875 C 8.5625 25.71875 8.332031 25.492188 8.332031 25.210938 L 8.332031 5.769531 C 8.332031 5.488281 8.5625 5.261719 8.84375 5.261719 L 39.164062 5.261719 C 39.445312 5.261719 39.675781 5.488281 39.675781 5.769531 Z M 16.949219 20.5 C 17.753906 21.992188 19.40625 23.121094 21.144531 23.40625 C 21.164062 23.40625 21.179688 23.402344 21.191406 23.390625 C 21.207031 23.378906 21.210938 23.363281 21.214844 23.347656 L 21.222656 7.972656 C 21.222656 7.9375 21.207031 7.921875 21.171875 7.921875 L 16.28125 7.921875 C 16.246094 7.921875 16.214844 7.949219 16.214844 7.984375 C 16.203125 10.941406 16.207031 13.878906 16.226562 16.804688 C 16.234375 18.207031 16.355469 19.390625 16.949219 20.5 Z M 26.679688 18.4375 C 26.230469 19.382812 25.472656 19.898438 24.410156 19.992188 C 24.265625 20.003906 24.132812 20.023438 24.015625 20.042969 C 23.964844 20.054688 23.941406 20.082031 23.941406 20.132812 L 23.957031 23.664062 C 23.957031 23.695312 23.972656 23.714844 24.003906 23.714844 C 26.828125 23.886719 30.152344 22.914062 31.347656 20.160156 C 31.761719 19.203125 31.851562 18.066406 31.859375 16.984375 C 31.878906 13.988281 31.890625 10.992188 31.886719 7.992188 C 31.886719 7.953125 31.855469 7.921875 31.816406 7.921875 L 26.925781 7.921875 C 26.886719 7.921875 26.851562 7.953125 26.851562 7.992188 C 26.863281 11.207031 26.847656 14.402344 26.800781 17.582031 C 26.792969 17.992188 26.753906 18.277344 26.679688 18.4375 Z M 26.679688 18.4375 "/>
<path style=" stroke:none;fill-rule:nonzero;fill:rgb(0%,0%,0%);fill-opacity:1;" d="M 21.144531 23.40625 C 19.40625 23.121094 17.753906 21.992188 16.949219 20.5 C 16.355469 19.390625 16.234375 18.207031 16.226562 16.804688 C 16.207031 13.878906 16.203125 10.941406 16.214844 7.984375 C 16.214844 7.949219 16.246094 7.921875 16.28125 7.921875 L 21.171875 7.921875 C 21.207031 7.921875 21.222656 7.9375 21.222656 7.972656 L 21.214844 23.347656 C 21.210938 23.363281 21.207031 23.378906 21.191406 23.390625 C 21.179688 23.402344 21.164062 23.40625 21.144531 23.40625 Z M 21.144531 23.40625 "/>
<path style=" stroke:none;fill-rule:nonzero;fill:rgb(0%,0%,0%);fill-opacity:1;" d="M 26.679688 18.4375 C 26.753906 18.277344 26.792969 17.992188 26.800781 17.582031 C 26.847656 14.402344 26.863281 11.207031 26.851562 7.992188 C 26.851562 7.953125 26.886719 7.921875 26.925781 7.921875 L 31.816406 7.921875 C 31.855469 7.921875 31.886719 7.953125 31.886719 7.992188 C 31.890625 10.992188 31.878906 13.988281 31.859375 16.984375 C 31.851562 18.066406 31.761719 19.203125 31.347656 20.160156 C 30.152344 22.914062 26.828125 23.886719 24.003906 23.714844 C 23.972656 23.714844 23.957031 23.695312 23.957031 23.664062 L 23.941406 20.132812 C 23.941406 20.082031 23.964844 20.054688 24.015625 20.042969 C 24.132812 20.023438 24.265625 20.003906 24.410156 19.992188 C 25.472656 19.898438 26.230469 19.382812 26.679688 18.4375 Z M 26.679688 18.4375 "/>
<path style=" stroke:none;fill-rule:nonzero;fill:rgb(95.686275%,96.470588%,97.254902%);fill-opacity:1;" d="M 28.425781 32.53125 C 29.085938 32.53125 28.921875 31.035156 28.90625 30.65625 C 28.90625 30.636719 28.914062 30.617188 28.929688 30.601562 C 28.941406 30.585938 28.960938 30.578125 28.980469 30.578125 L 33.195312 30.585938 C 33.253906 30.585938 33.304688 30.621094 33.324219 30.675781 C 33.542969 31.242188 33.738281 31.824219 33.910156 32.421875 C 33.96875 32.632812 33.996094 32.847656 33.988281 33.066406 C 33.972656 33.414062 33.25 33.484375 33.023438 33.484375 C 26.976562 33.480469 20.925781 33.480469 14.878906 33.484375 C 14.390625 33.484375 13.914062 33.300781 14.050781 32.710938 C 14.21875 31.996094 14.445312 31.300781 14.734375 30.632812 C 14.746094 30.601562 14.773438 30.585938 14.804688 30.585938 L 19.042969 30.585938 C 19.0625 30.585938 19.078125 30.59375 19.09375 30.605469 C 19.105469 30.617188 19.113281 30.636719 19.113281 30.65625 C 19.109375 31.074219 19.105469 31.496094 19.105469 31.925781 C 19.105469 32.238281 19.273438 32.535156 19.605469 32.535156 C 22.542969 32.535156 25.484375 32.535156 28.425781 32.53125 Z M 28.425781 32.53125 "/>
<path style=" stroke:none;fill-rule:nonzero;fill:rgb(95.686275%,96.470588%,97.254902%);fill-opacity:1;" d="M 20.179688 30.578125 L 27.839844 30.578125 C 27.878906 30.578125 27.914062 30.609375 27.914062 30.652344 L 27.914062 31.460938 C 27.914062 31.503906 27.878906 31.535156 27.839844 31.535156 L 20.179688 31.535156 C 20.136719 31.535156 20.105469 31.503906 20.105469 31.460938 L 20.105469 30.652344 C 20.105469 30.609375 20.136719 30.578125 20.179688 30.578125 Z M 20.179688 30.578125 "/>
<path style=" stroke:none;fill-rule:nonzero;fill:rgb(5.098039%,16.078431%,34.117647%);fill-opacity:1;" d="M 4.554688 38.769531 C 5.058594 37.605469 5.46875 36.046875 6.824219 35.585938 C 7.105469 35.492188 7.640625 35.445312 8.433594 35.445312 C 18.6875 35.445312 28.9375 35.441406 39.191406 35.433594 C 40.179688 35.433594 40.792969 35.464844 41.027344 35.527344 C 42.042969 35.800781 42.558594 36.636719 42.957031 37.554688 C 43.707031 39.304688 44.445312 41.058594 45.171875 42.820312 C 45.367188 43.300781 45.601562 43.886719 45.609375 44.367188 C 45.628906 45.429688 44.675781 46.105469 43.644531 46.105469 C 31.136719 46.089844 18.628906 46.085938 6.121094 46.09375 C 5.292969 46.09375 4.636719 46.082031 4.144531 46.058594 C 3.53125 46.027344 2.882812 45.722656 2.59375 45.171875 C 2.285156 44.574219 2.519531 43.679688 2.765625 43.074219 C 3.34375 41.632812 3.9375 40.195312 4.554688 38.769531 Z M 5.804688 38.285156 C 5.113281 39.902344 4.421875 41.519531 3.734375 43.136719 C 3.507812 43.671875 3.039062 44.761719 3.839844 45.078125 C 3.980469 45.136719 4.230469 45.164062 4.589844 45.160156 C 17.597656 45.132812 30.609375 45.136719 43.617188 45.164062 C 44.871094 45.167969 44.738281 44.296875 44.386719 43.445312 C 43.652344 41.667969 42.902344 39.894531 42.144531 38.125 C 41.699219 37.097656 41.414062 36.410156 40.257812 36.40625 C 34.882812 36.394531 24.101562 36.402344 7.910156 36.429688 C 6.441406 36.433594 6.292969 37.148438 5.804688 38.285156 Z M 5.804688 38.285156 "/>
<path style=" stroke:none;fill-rule:nonzero;fill:rgb(95.686275%,96.470588%,97.254902%);fill-opacity:1;" d="M 5.804688 38.285156 C 6.292969 37.148438 6.441406 36.433594 7.910156 36.429688 C 24.101562 36.402344 34.882812 36.394531 40.257812 36.40625 C 41.414062 36.410156 41.699219 37.097656 42.144531 38.125 C 42.902344 39.894531 43.652344 41.667969 44.386719 43.445312 C 44.738281 44.296875 44.871094 45.167969 43.617188 45.164062 C 30.609375 45.136719 17.597656 45.132812 4.589844 45.160156 C 4.230469 45.164062 3.980469 45.136719 3.839844 45.078125 C 3.039062 44.761719 3.507812 43.671875 3.734375 43.136719 C 4.421875 41.519531 5.113281 39.902344 5.804688 38.285156 Z M 41.628906 44.183594 C 41.789062 44.183594 41.941406 44.105469 42.035156 43.976562 C 42.128906 43.847656 42.15625 43.683594 42.105469 43.53125 L 40.152344 37.714844 C 40.082031 37.515625 39.890625 37.378906 39.675781 37.378906 L 8.335938 37.378906 C 8.121094 37.378906 7.929688 37.515625 7.863281 37.714844 L 5.914062 43.53125 C 5.863281 43.683594 5.886719 43.847656 5.980469 43.976562 C 6.078125 44.105469 6.226562 44.183594 6.390625 44.183594 Z M 41.628906 44.183594 "/>
<path style=" stroke:none;fill-rule:nonzero;fill:rgb(5.098039%,16.078431%,34.117647%);fill-opacity:1;" d="M 41.628906 44.183594 L 6.390625 44.183594 C 6.226562 44.183594 6.078125 44.105469 5.980469 43.976562 C 5.886719 43.847656 5.863281 43.683594 5.914062 43.53125 L 7.863281 37.714844 C 7.929688 37.515625 8.121094 37.378906 8.335938 37.378906 L 39.675781 37.378906 C 39.890625 37.378906 40.082031 37.515625 40.152344 37.714844 L 42.105469 43.53125 C 42.15625 43.683594 42.128906 43.847656 42.035156 43.976562 C 41.941406 44.105469 41.789062 44.183594 41.628906 44.183594 Z M 8.085938 40.179688 C 8.082031 40.199219 8.085938 40.222656 8.097656 40.242188 C 8.109375 40.257812 8.132812 40.269531 8.15625 40.269531 L 10.214844 40.269531 C 10.257812 40.269531 10.289062 40.238281 10.289062 40.199219 L 10.289062 38.433594 C 10.289062 38.394531 10.257812 38.363281 10.21875 38.363281 L 8.730469 38.363281 C 8.699219 38.363281 8.671875 38.382812 8.664062 38.410156 Z M 13.234375 38.410156 C 13.234375 38.382812 13.210938 38.363281 13.183594 38.363281 L 11.347656 38.363281 C 11.320312 38.363281 11.296875 38.382812 11.296875 38.410156 L 11.296875 40.222656 C 11.296875 40.25 11.320312 40.269531 11.347656 40.269531 L 13.183594 40.269531 C 13.210938 40.269531 13.234375 40.25 13.234375 40.222656 Z M 16.160156 38.421875 C 16.160156 38.386719 16.128906 38.355469 16.09375 38.355469 L 14.289062 38.359375 C 14.25 38.359375 14.222656 38.390625 14.222656 38.425781 L 14.222656 40.207031 C 14.222656 40.242188 14.253906 40.269531 14.292969 40.269531 L 16.09375 40.269531 C 16.132812 40.269531 16.160156 40.238281 16.160156 40.203125 Z M 19.109375 38.417969 C 19.109375 38.386719 19.082031 38.359375 19.050781 38.359375 L 17.214844 38.355469 C 17.179688 38.355469 17.15625 38.382812 17.15625 38.414062 L 17.152344 40.210938 C 17.152344 40.242188 17.175781 40.269531 17.210938 40.269531 L 19.046875 40.273438 C 19.078125 40.273438 19.105469 40.246094 19.105469 40.214844 Z M 22.054688 38.421875 C 22.054688 38.390625 22.027344 38.359375 21.992188 38.359375 L 20.183594 38.355469 C 20.148438 38.355469 20.117188 38.382812 20.117188 38.417969 L 20.113281 40.207031 C 20.113281 40.242188 20.140625 40.269531 20.175781 40.269531 L 21.984375 40.277344 C 22.019531 40.277344 22.046875 40.246094 22.046875 40.214844 Z M 24.972656 38.417969 C 24.972656 38.382812 24.945312 38.359375 24.910156 38.359375 L 23.09375 38.359375 C 23.058594 38.359375 23.03125 38.382812 23.03125 38.417969 L 23.03125 40.210938 C 23.03125 40.242188 23.058594 40.269531 23.09375 40.269531 L 24.910156 40.269531 C 24.945312 40.269531 24.972656 40.242188 24.972656 40.210938 Z M 27.910156 38.417969 C 27.910156 38.382812 27.882812 38.359375 27.851562 38.359375 L 26.019531 38.363281 C 25.988281 38.363281 25.960938 38.386719 25.960938 38.417969 L 25.964844 40.214844 C 25.964844 40.246094 25.992188 40.273438 26.023438 40.273438 L 27.855469 40.269531 C 27.886719 40.269531 27.914062 40.246094 27.914062 40.210938 Z M 30.867188 38.421875 C 30.867188 38.386719 30.839844 38.363281 30.808594 38.363281 L 28.964844 38.363281 C 28.933594 38.363281 28.90625 38.386719 28.90625 38.421875 L 28.90625 40.210938 C 28.90625 40.246094 28.933594 40.269531 28.964844 40.269531 L 30.808594 40.269531 C 30.839844 40.269531 30.867188 40.246094 30.867188 40.210938 Z M 33.792969 38.425781 C 33.792969 38.386719 33.765625 38.359375 33.726562 38.359375 L 31.921875 38.363281 C 31.882812 38.363281 31.851562 38.390625 31.851562 38.429688 L 31.855469 40.203125 C 31.855469 40.242188 31.886719 40.273438 31.921875 40.273438 L 33.730469 40.269531 C 33.765625 40.269531 33.796875 40.238281 33.796875 40.199219 Z M 36.722656 38.433594 C 36.722656 38.394531 36.691406 38.363281 36.652344 38.363281 L 34.847656 38.359375 C 34.808594 38.359375 34.777344 38.390625 34.777344 38.429688 L 34.773438 40.199219 C 34.773438 40.238281 34.804688 40.269531 34.84375 40.269531 L 36.652344 40.273438 C 36.691406 40.273438 36.722656 40.242188 36.722656 40.203125 Z M 37.71875 40.207031 C 37.71875 40.242188 37.746094 40.269531 37.78125 40.269531 L 39.871094 40.269531 C 39.894531 40.269531 39.914062 40.261719 39.925781 40.246094 C 39.9375 40.226562 39.941406 40.207031 39.933594 40.1875 L 39.359375 38.40625 C 39.351562 38.378906 39.324219 38.363281 39.296875 38.363281 L 37.78125 38.359375 C 37.746094 38.359375 37.714844 38.390625 37.714844 38.425781 Z M 7.757812 41.28125 C 7.726562 41.28125 7.699219 41.300781 7.691406 41.332031 L 7.097656 43.113281 C 7.089844 43.136719 7.09375 43.160156 7.105469 43.179688 C 7.121094 43.199219 7.144531 43.207031 7.167969 43.207031 L 10.214844 43.207031 C 10.253906 43.207031 10.289062 43.175781 10.289062 43.136719 L 10.289062 41.351562 C 10.289062 41.3125 10.257812 41.28125 10.21875 41.28125 Z M 13.234375 41.335938 C 13.234375 41.304688 13.210938 41.28125 13.183594 41.28125 L 11.355469 41.28125 C 11.324219 41.28125 11.300781 41.304688 11.300781 41.332031 L 11.296875 43.152344 C 11.296875 43.179688 11.324219 43.203125 11.351562 43.203125 L 13.179688 43.207031 C 13.207031 43.207031 13.230469 43.183594 13.230469 43.152344 Z M 30.867188 41.347656 C 30.867188 41.308594 30.835938 41.273438 30.796875 41.273438 L 14.296875 41.273438 C 14.257812 41.273438 14.226562 41.308594 14.226562 41.347656 L 14.226562 43.136719 C 14.226562 43.175781 14.257812 43.207031 14.296875 43.207031 L 30.796875 43.207031 C 30.835938 43.207031 30.867188 43.175781 30.867188 43.136719 Z M 33.796875 41.351562 C 33.796875 41.308594 33.765625 41.273438 33.722656 41.273438 L 31.921875 41.273438 C 31.878906 41.273438 31.84375 41.308594 31.84375 41.351562 L 31.84375 43.140625 C 31.84375 43.179688 31.878906 43.214844 31.921875 43.214844 L 33.722656 43.214844 C 33.765625 43.214844 33.796875 43.179688 33.796875 43.140625 Z M 36.722656 41.359375 C 36.722656 41.3125 36.683594 41.277344 36.636719 41.277344 L 34.863281 41.273438 C 34.816406 41.273438 34.777344 41.3125 34.777344 41.359375 L 34.773438 43.125 C 34.773438 43.171875 34.8125 43.210938 34.859375 43.210938 L 36.632812 43.214844 C 36.683594 43.214844 36.71875 43.175781 36.71875 43.128906 Z M 40.859375 43.203125 C 40.882812 43.203125 40.902344 43.191406 40.917969 43.171875 C 40.929688 43.15625 40.933594 43.132812 40.925781 43.109375 L 40.324219 41.328125 C 40.3125 41.300781 40.285156 41.28125 40.253906 41.28125 L 37.789062 41.28125 C 37.75 41.28125 37.71875 41.3125 37.71875 41.351562 L 37.714844 43.140625 C 37.714844 43.179688 37.75 43.210938 37.789062 43.210938 Z M 40.859375 43.203125 "/>
<path style=" stroke:none;fill-rule:nonzero;fill:rgb(95.686275%,96.470588%,97.254902%);fill-opacity:1;" d="M 8.085938 40.179688 L 8.664062 38.410156 C 8.671875 38.382812 8.699219 38.363281 8.730469 38.363281 L 10.21875 38.363281 C 10.257812 38.363281 10.289062 38.394531 10.289062 38.433594 L 10.289062 40.199219 C 10.289062 40.238281 10.257812 40.269531 10.214844 40.269531 L 8.15625 40.269531 C 8.132812 40.269531 8.109375 40.257812 8.097656 40.242188 C 8.085938 40.222656 8.082031 40.199219 8.085938 40.179688 Z M 8.085938 40.179688 "/>
<path style=" stroke:none;fill-rule:nonzero;fill:rgb(95.686275%,96.470588%,97.254902%);fill-opacity:1;" d="M 11.347656 38.363281 L 13.183594 38.363281 C 13.210938 38.363281 13.234375 38.382812 13.234375 38.410156 L 13.234375 40.222656 C 13.234375 40.25 13.210938 40.269531 13.183594 40.269531 L 11.347656 40.269531 C 11.320312 40.269531 11.296875 40.25 11.296875 40.222656 L 11.296875 38.410156 C 11.296875 38.382812 11.320312 38.363281 11.347656 38.363281 Z M 11.347656 38.363281 "/>
<path style=" stroke:none;fill-rule:nonzero;fill:rgb(95.686275%,96.470588%,97.254902%);fill-opacity:1;" d="M 14.289062 38.359375 L 16.09375 38.355469 C 16.128906 38.355469 16.160156 38.386719 16.160156 38.421875 L 16.160156 40.203125 C 16.160156 40.238281 16.132812 40.269531 16.09375 40.269531 L 14.292969 40.269531 C 14.253906 40.269531 14.222656 40.242188 14.222656 40.207031 L 14.222656 38.425781 C 14.222656 38.390625 14.25 38.359375 14.289062 38.359375 Z M 14.289062 38.359375 "/>
<path style=" stroke:none;fill-rule:nonzero;fill:rgb(95.686275%,96.470588%,97.254902%);fill-opacity:1;" d="M 17.214844 38.355469 L 19.050781 38.359375 C 19.082031 38.359375 19.109375 38.386719 19.109375 38.417969 L 19.105469 40.214844 C 19.105469 40.246094 19.078125 40.273438 19.046875 40.273438 L 17.210938 40.269531 C 17.175781 40.269531 17.152344 40.242188 17.152344 40.210938 L 17.15625 38.414062 C 17.15625 38.382812 17.179688 38.355469 17.214844 38.355469 Z M 17.214844 38.355469 "/>
<path style=" stroke:none;fill-rule:nonzero;fill:rgb(95.686275%,96.470588%,97.254902%);fill-opacity:1;" d="M 20.183594 38.355469 L 21.992188 38.359375 C 22.027344 38.359375 22.054688 38.390625 22.054688 38.421875 L 22.046875 40.214844 C 22.046875 40.246094 22.019531 40.277344 21.984375 40.277344 L 20.175781 40.269531 C 20.140625 40.269531 20.113281 40.242188 20.113281 40.207031 L 20.117188 38.417969 C 20.117188 38.382812 20.148438 38.355469 20.183594 38.355469 Z M 20.183594 38.355469 "/>
<path style=" stroke:none;fill-rule:nonzero;fill:rgb(95.686275%,96.470588%,97.254902%);fill-opacity:1;" d="M 23.09375 38.359375 L 24.910156 38.359375 C 24.945312 38.359375 24.972656 38.382812 24.972656 38.417969 L 24.972656 40.210938 C 24.972656 40.242188 24.945312 40.269531 24.910156 40.269531 L 23.09375 40.269531 C 23.058594 40.269531 23.03125 40.242188 23.03125 40.210938 L 23.03125 38.417969 C 23.03125 38.382812 23.058594 38.359375 23.09375 38.359375 Z M 23.09375 38.359375 "/>
<path style=" stroke:none;fill-rule:nonzero;fill:rgb(95.686275%,96.470588%,97.254902%);fill-opacity:1;" d="M 26.019531 38.363281 L 27.851562 38.359375 C 27.882812 38.359375 27.910156 38.382812 27.910156 38.417969 L 27.914062 40.210938 C 27.914062 40.246094 27.886719 40.269531 27.855469 40.269531 L 26.023438 40.273438 C 25.992188 40.273438 25.964844 40.246094 25.964844 40.214844 L 25.960938 38.417969 C 25.960938 38.386719 25.988281 38.363281 26.019531 38.363281 Z M 26.019531 38.363281 "/>
<path style=" stroke:none;fill-rule:nonzero;fill:rgb(95.686275%,96.470588%,97.254902%);fill-opacity:1;" d="M 28.964844 38.363281 L 30.808594 38.363281 C 30.839844 38.363281 30.867188 38.386719 30.867188 38.421875 L 30.867188 40.210938 C 30.867188 40.246094 30.839844 40.269531 30.808594 40.269531 L 28.964844 40.269531 C 28.933594 40.269531 28.90625 40.246094 28.90625 40.210938 L 28.90625 38.421875 C 28.90625 38.386719 28.933594 38.363281 28.964844 38.363281 Z M 28.964844 38.363281 "/>
<path style=" stroke:none;fill-rule:nonzero;fill:rgb(95.686275%,96.470588%,97.254902%);fill-opacity:1;" d="M 31.921875 38.363281 L 33.726562 38.359375 C 33.765625 38.359375 33.792969 38.386719 33.792969 38.425781 L 33.796875 40.199219 C 33.796875 40.238281 33.765625 40.269531 33.730469 40.269531 L 31.921875 40.273438 C 31.886719 40.273438 31.855469 40.242188 31.855469 40.203125 L 31.851562 38.429688 C 31.851562 38.390625 31.882812 38.363281 31.921875 38.363281 Z M 31.921875 38.363281 "/>
<path style=" stroke:none;fill-rule:nonzero;fill:rgb(95.686275%,96.470588%,97.254902%);fill-opacity:1;" d="M 34.847656 38.359375 L 36.652344 38.363281 C 36.691406 38.363281 36.722656 38.394531 36.722656 38.433594 L 36.722656 40.203125 C 36.722656 40.242188 36.691406 40.273438 36.652344 40.273438 L 34.84375 40.269531 C 34.804688 40.269531 34.773438 40.238281 34.773438 40.199219 L 34.777344 38.429688 C 34.777344 38.390625 34.808594 38.359375 34.847656 38.359375 Z M 34.847656 38.359375 "/>
<path style=" stroke:none;fill-rule:nonzero;fill:rgb(95.686275%,96.470588%,97.254902%);fill-opacity:1;" d="M 37.71875 40.207031 L 37.714844 38.425781 C 37.714844 38.390625 37.746094 38.359375 37.78125 38.359375 L 39.296875 38.363281 C 39.324219 38.363281 39.351562 38.378906 39.359375 38.40625 L 39.933594 40.1875 C 39.941406 40.207031 39.9375 40.226562 39.925781 40.246094 C 39.914062 40.261719 39.894531 40.269531 39.871094 40.269531 L 37.78125 40.269531 C 37.746094 40.269531 37.71875 40.242188 37.71875 40.207031 Z M 37.71875 40.207031 "/>
<path style=" stroke:none;fill-rule:nonzero;fill:rgb(95.686275%,96.470588%,97.254902%);fill-opacity:1;" d="M 7.757812 41.28125 L 10.21875 41.28125 C 10.257812 41.28125 10.289062 41.3125 10.289062 41.351562 L 10.289062 43.136719 C 10.289062 43.175781 10.253906 43.207031 10.214844 43.207031 L 7.167969 43.207031 C 7.144531 43.207031 7.121094 43.199219 7.105469 43.179688 C 7.09375 43.160156 7.089844 43.136719 7.097656 43.113281 L 7.691406 41.332031 C 7.699219 41.300781 7.726562 41.28125 7.757812 41.28125 Z M 7.757812 41.28125 "/>
<path style=" stroke:none;fill-rule:nonzero;fill:rgb(95.686275%,96.470588%,97.254902%);fill-opacity:1;" d="M 11.355469 41.28125 L 13.183594 41.28125 C 13.210938 41.28125 13.234375 41.304688 13.234375 41.335938 L 13.230469 43.152344 C 13.230469 43.183594 13.207031 43.207031 13.179688 43.207031 L 11.351562 43.203125 C 11.324219 43.203125 11.296875 43.179688 11.296875 43.152344 L 11.300781 41.332031 C 11.300781 41.304688 11.324219 41.28125 11.355469 41.28125 Z M 11.355469 41.28125 "/>
<path style=" stroke:none;fill-rule:nonzero;fill:rgb(95.686275%,96.470588%,97.254902%);fill-opacity:1;" d="M 14.296875 41.273438 L 30.796875 41.273438 C 30.835938 41.273438 30.867188 41.308594 30.867188 41.347656 L 30.867188 43.136719 C 30.867188 43.175781 30.835938 43.207031 30.796875 43.207031 L 14.296875 43.207031 C 14.257812 43.207031 14.226562 43.175781 14.226562 43.136719 L 14.226562 41.347656 C 14.226562 41.308594 14.257812 41.273438 14.296875 41.273438 Z M 14.296875 41.273438 "/>
<path style=" stroke:none;fill-rule:nonzero;fill:rgb(95.686275%,96.470588%,97.254902%);fill-opacity:1;" d="M 31.921875 41.273438 L 33.722656 41.273438 C 33.765625 41.273438 33.796875 41.308594 33.796875 41.351562 L 33.796875 43.140625 C 33.796875 43.179688 33.765625 43.214844 33.722656 43.214844 L 31.921875 43.214844 C 31.878906 43.214844 31.84375 43.179688 31.84375 43.140625 L 31.84375 41.351562 C 31.84375 41.308594 31.878906 41.273438 31.921875 41.273438 Z M 31.921875 41.273438 "/>
<path style=" stroke:none;fill-rule:nonzero;fill:rgb(95.686275%,96.470588%,97.254902%);fill-opacity:1;" d="M 34.863281 41.273438 L 36.636719 41.277344 C 36.683594 41.277344 36.722656 41.3125 36.722656 41.359375 L 36.71875 43.128906 C 36.71875 43.175781 36.683594 43.214844 36.632812 43.214844 L 34.859375 43.210938 C 34.8125 43.210938 34.773438 43.171875 34.773438 43.125 L 34.777344 41.359375 C 34.777344 41.3125 34.816406 41.273438 34.863281 41.273438 Z M 34.863281 41.273438 "/>
<path style=" stroke:none;fill-rule:nonzero;fill:rgb(95.686275%,96.470588%,97.254902%);fill-opacity:1;" d="M 40.859375 43.203125 L 37.789062 43.210938 C 37.75 43.210938 37.714844 43.179688 37.714844 43.140625 L 37.71875 41.351562 C 37.71875 41.3125 37.75 41.28125 37.789062 41.28125 L 40.253906 41.28125 C 40.285156 41.28125 40.3125 41.300781 40.324219 41.328125 L 40.925781 43.109375 C 40.933594 43.132812 40.929688 43.15625 40.917969 43.171875 C 40.902344 43.191406 40.882812 43.203125 40.859375 43.203125 Z M 40.859375 43.203125 "/>
</g>
</svg>
